<svg width="16" height="16" fill="none" xmlns="http://www.w3.org/2000/svg"><path fill-rule="evenodd" clip-rule="evenodd" d="M12.54 4.796a.45.45 0 010 .627l-5.645 5.78a.425.425 0 01-.612 0L3.46 8.314a.45.45 0 010-.626.425.425 0 01.612 0l2.517 2.577 5.34-5.467a.425.425 0 01.611 0z" fill="#28906F"/><path fill-rule="evenodd" clip-rule="evenodd" d="M12.731 4.61c.27.277.27.723 0 1l-5.646 5.78a.692.692 0 01-.993 0L3.27 8.5a.717.717 0 010-1c.274-.28.72-.28.994 0L6.59 9.883l5.149-5.273c.273-.28.72-.28.993 0zm-6.142 5.654L4.072 7.687a.425.425 0 00-.612 0 .45.45 0 000 .626l2.823 2.89a.425.425 0 00.612 0l5.645-5.78a.45.45 0 000-.627.425.425 0 00-.611 0l-5.34 5.468z" fill="#28906F"/></svg>