<svg width="65" height="64" viewBox="0 0 65 64" fill="none" xmlns="http://www.w3.org/2000/svg">
<rect x="4.5" y="4" width="56" height="56" rx="28" stroke="url(#paint0_linear_1_846)" stroke-width="8"/>
<path d="M36.59 32.4V36.47C36.59 36.83 36.55 37.17 36.46 37.48C36.09 38.95 34.87 39.87 33.19 39.87H30.47L27.45 41.88C27 42.19 26.4 41.86 26.4 41.32V39.87C25.38 39.87 24.53 39.53 23.94 38.94C23.34 38.34 23 37.49 23 36.47V32.4C23 30.5 24.18 29.19 26 29.02C26.13 29.01 26.26 29 26.4 29H33.19C35.23 29 36.59 30.36 36.59 32.4Z" fill="#0E0F11"/>
<path d="M38.75 35.6C40.02 35.6 41.09 35.18 41.83 34.43C42.58 33.69 43 32.62 43 31.35V26.25C43 23.9 41.1 22 38.75 22H30.25C27.9 22 26 23.9 26 26.25V27C26 27.28 26.22 27.5 26.5 27.5H33.19C35.9 27.5 38.09 29.69 38.09 32.4V35.1C38.09 35.38 38.31 35.6 38.59 35.6H38.75V35.6Z" fill="#0E0F11"/>
<defs>
<linearGradient id="paint0_linear_1_846" x1="32.5" y1="0" x2="32.5" y2="64" gradientUnits="userSpaceOnUse">
<stop offset="0.355133" stop-color="#F3F7FB"/>
<stop offset="1" stop-color="#F3F7FB" stop-opacity="0.1"/>
</linearGradient>
</defs>
</svg>
