<svg width="65" height="64" fill="none" xmlns="http://www.w3.org/2000/svg"><rect x="4.5" y="4" width="56" height="56" rx="28" stroke="url(#paint0_linear_1_846)" stroke-width="8"/><path d="M36.59 32.4v4.07c0 .36-.04.7-.13 1.01-.37 1.47-1.59 2.39-3.27 2.39h-2.72l-3.02 2.01a.671.671 0 01-1.05-.56v-1.45c-1.02 0-1.87-.34-2.46-.93-.6-.6-.94-1.45-.94-2.47V32.4c0-1.9 1.18-3.21 3-3.38.13-.01.26-.02.4-.02h6.79c2.04 0 3.4 1.36 3.4 3.4z" fill="#0E0F11"/><path d="M38.75 35.6c1.27 0 2.34-.42 3.08-1.17.75-.74 1.17-1.81 1.17-3.08v-5.1C43 23.9 41.1 22 38.75 22h-8.5C27.9 22 26 23.9 26 26.25V27c0 .28.22.5.5.5h6.69c2.71 0 4.9 2.19 4.9 4.9v2.7c0 .28.22.5.5.5h.16z" fill="#0E0F11"/><defs><linearGradient id="paint0_linear_1_846" x1="32.5" y1="0" x2="32.5" y2="64" gradientUnits="userSpaceOnUse"><stop offset=".355" stop-color="#F3F7FB"/><stop offset="1" stop-color="#F3F7FB" stop-opacity=".1"/></linearGradient></defs></svg>