<svg width="30" height="30" fill="none" xmlns="http://www.w3.org/2000/svg"><circle opacity=".1" cx="15" cy="15" r="15" fill="#9564AA"/><path fill-rule="evenodd" clip-rule="evenodd" d="M18.035 8.333c-.965 0-1.587.115-2.3.464-.264.13-.512.285-.742.467a4.201 4.201 0 0 0-.712-.445c-.727-.36-1.38-.486-2.311-.486-2.492 0-4.303 2.065-4.303 4.747 0 2.025 1.129 3.982 3.232 5.873 1.104.993 2.514 1.976 3.523 2.499l.578.299.578-.3c1.01-.522 2.419-1.505 3.523-2.498 2.103-1.891 3.232-3.848 3.232-5.873 0-2.653-1.828-4.736-4.297-4.747ZM21 13.08c0 1.587-.942 3.22-2.79 4.882-1.009.906-2.304 1.812-3.21 2.287-.906-.475-2.201-1.38-3.21-2.287C9.944 16.3 9 14.667 9 13.08c0-1.982 1.256-3.413 2.97-3.413.74 0 1.195.087 1.72.347.31.153.584.356.821.609l.49.523.487-.528c.242-.263.52-.47.833-.623.51-.25.937-.328 1.712-.328C19.725 9.674 21 11.126 21 13.08Z" fill="#9564AA"/></svg>