<svg width="122" height="30" fill="none" xmlns="http://www.w3.org/2000/svg"><rect width="122" height="30" rx="10" fill="#684677"/><path d="M17.608 9.784c1.653 0 2.923.293 3.808.88.885.576 1.328 1.525 1.328 2.848 0 1.333-.448 2.299-1.344 2.896-.896.587-2.176.88-3.84.88h-.784V21H14.28V10.072c.544-.107 1.12-.181 1.728-.224a23.2 23.2 0 0 1 1.6-.064Zm.16 2.128c-.181 0-.363.005-.544.016-.17.01-.32.021-.448.032v3.2h.784c.864 0 1.515-.117 1.952-.352.437-.235.656-.672.656-1.312 0-.31-.059-.565-.176-.768a1.157 1.157 0 0 0-.48-.48 1.898 1.898 0 0 0-.752-.256 5.665 5.665 0 0 0-.992-.08Zm11.72 2.784a12.63 12.63 0 0 0-.751-.16 4.273 4.273 0 0 0-.928-.096c-.15 0-.33.016-.544.048a2.695 2.695 0 0 0-.464.08V21h-2.384v-7.968a13.4 13.4 0 0 1 1.504-.416 8.492 8.492 0 0 1 1.952-.208c.128 0 .282.01.464.032.181.01.363.032.544.064.181.021.363.053.544.096.181.032.336.075.464.128l-.4 1.968Zm1.123 2.16c0-.747.112-1.397.336-1.952.234-.565.538-1.035.912-1.408.373-.373.8-.656 1.28-.848.49-.192.992-.288 1.504-.288 1.194 0 2.138.368 2.832 1.104.693.725 1.04 1.797 1.04 3.216 0 .139-.006.293-.016.464l-.032.432h-5.408c.053.49.282.88.688 1.168.405.288.949.432 1.632.432.437 0 .864-.037 1.28-.112a5.137 5.137 0 0 0 1.04-.304l.32 1.936a3.29 3.29 0 0 1-.512.192 5.594 5.594 0 0 1-.72.16 8.57 8.57 0 0 1-1.728.176c-.758 0-1.419-.112-1.984-.336a4 4 0 0 1-1.392-.912 3.875 3.875 0 0 1-.816-1.392 5.642 5.642 0 0 1-.256-1.728Zm5.6-.912c-.011-.203-.048-.4-.112-.592a1.319 1.319 0 0 0-.272-.512 1.341 1.341 0 0 0-.464-.368c-.182-.096-.411-.144-.688-.144-.267 0-.496.048-.688.144a1.337 1.337 0 0 0-.48.352c-.128.15-.23.325-.304.528-.064.192-.112.39-.144.592h3.152Zm8.767.592c0-.768-.101-1.312-.304-1.632-.192-.32-.528-.48-1.008-.48-.149 0-.304.01-.464.032a6.23 6.23 0 0 0-.464.048V21h-2.384v-8.128c.203-.053.438-.107.704-.16.278-.064.566-.117.864-.16.31-.053.624-.09.944-.112.32-.032.635-.048.944-.048.608 0 1.099.08 1.472.24.384.15.699.33.944.544.342-.245.731-.437 1.168-.576a4.194 4.194 0 0 1 1.232-.208c.672 0 1.222.096 1.648.288a2.43 2.43 0 0 1 1.04.784c.256.341.432.747.528 1.216.096.47.144.992.144 1.568V21h-2.384v-4.464c0-.768-.101-1.312-.304-1.632-.192-.32-.528-.48-1.008-.48-.128 0-.309.032-.544.096-.224.064-.41.144-.56.24.075.245.123.507.144.784.022.267.032.555.032.864V21h-2.384v-4.464ZM56.535 21h-2.384v-8.416h2.384V21Zm.224-10.848c0 .437-.144.784-.432 1.04a1.447 1.447 0 0 1-.992.368c-.384 0-.72-.123-1.008-.368-.277-.256-.416-.603-.416-1.04 0-.437.139-.779.416-1.024a1.47 1.47 0 0 1 1.008-.384c.384 0 .715.128.992.384.288.245.432.587.432 1.024Zm9.201 10.56c-.405.117-.928.224-1.568.32-.64.107-1.312.16-2.016.16-.714 0-1.312-.096-1.792-.288-.47-.192-.842-.459-1.12-.8a3.223 3.223 0 0 1-.592-1.248 6.666 6.666 0 0 1-.176-1.584v-4.688h2.384v4.4c0 .768.102 1.323.304 1.664.203.341.582.512 1.136.512.17 0 .352-.005.544-.016.192-.021.363-.043.512-.064v-6.496h2.384v8.128Zm6.862-4.176c0-.768-.101-1.312-.304-1.632-.192-.32-.528-.48-1.008-.48-.15 0-.304.01-.464.032-.16.01-.315.027-.464.048V21h-2.384v-8.128c.203-.053.438-.107.704-.16.278-.064.566-.117.864-.16.31-.053.624-.09.944-.112.32-.032.635-.048.944-.048.608 0 1.099.08 1.472.24.384.15.699.33.944.544a4.12 4.12 0 0 1 1.168-.576 4.195 4.195 0 0 1 1.232-.208c.672 0 1.222.096 1.648.288.438.181.784.443 1.04.784s.432.747.528 1.216c.096.47.144.992.144 1.568V21h-2.384v-4.464c0-.768-.101-1.312-.304-1.632-.192-.32-.528-.48-1.008-.48-.128 0-.31.032-.544.096-.224.064-.41.144-.56.24.075.245.123.507.144.784.021.267.032.555.032.864V21h-2.384v-4.464Z" fill="#FFCF2D"/><path d="M100 7.5h5l4 5m-9-5 3 5m-3-5h-5l-4 5m9-5-3 5m12 0-9 10m9-10h-6m-3 10 3-10m-3 10-9-10m9 10-3-10m6 0h-6m-6 0h6" stroke="#FFCF2D" stroke-width="1.5"/></svg>