<svg width="30" height="30" fill="none" xmlns="http://www.w3.org/2000/svg"><circle opacity=".1" cx="15" cy="15" r="15" fill="#9564AA"/><path fill-rule="evenodd" clip-rule="evenodd" d="M15 9.667c1.818 0 3.557.953 5.177 2.52a15.518 15.518 0 0 1 2.051 2.454l.23.359-.23.36a15.518 15.518 0 0 1-2.05 2.453c-1.62 1.567-3.36 2.52-5.178 2.52s-3.557-.953-5.178-2.52a15.534 15.534 0 0 1-2.05-2.454L7.542 15l.23-.36a15.534 15.534 0 0 1 2.05-2.453c1.62-1.567 3.36-2.52 5.178-2.52Zm5.615 5.01a14.213 14.213 0 0 0-1.364-1.531C17.855 11.796 16.403 11 15 11c-1.403 0-2.855.796-4.25 2.146A14.212 14.212 0 0 0 9.143 15a14.223 14.223 0 0 0 1.605 1.854C12.145 18.204 13.597 19 15 19c1.403 0 2.855-.796 4.25-2.146A14.224 14.224 0 0 0 20.857 15c-.074-.101-.154-.21-.241-.322ZM12.333 15a2.667 2.667 0 1 0 5.334 0 2.667 2.667 0 0 0-5.334 0Zm4 0a1.333 1.333 0 1 1-2.666 0 1.333 1.333 0 0 1 2.666 0Z" fill="#9564AA"/></svg>