<svg width="65" height="64" fill="none" xmlns="http://www.w3.org/2000/svg"><rect x="4.5" y="4" width="56" height="56" rx="28" stroke="url(#paint0_linear_1_800)" stroke-width="8"/><path d="M42.03 30.87l-1.52-1.52c-.26-.26-.47-.77-.47-1.13v-2.16c0-.88-.72-1.6-1.6-1.6h-2.15c-.36 0-.87-.21-1.13-.47l-1.52-1.52c-.62-.62-1.64-.62-2.26 0l-1.54 1.52c-.25.26-.76.47-1.13.47h-2.15c-.88 0-1.6.72-1.6 1.6v2.15c0 .36-.21.87-.47 1.13l-1.52 1.52c-.62.62-.62 1.64 0 2.26l1.52 1.52c.26.26.47.77.47 1.13v2.15c0 .88.72 1.6 1.6 1.6h2.15c.36 0 .87.21 1.13.47l1.52 1.52c.62.62 1.64.62 2.26 0l1.52-1.52c.26-.26.77-.47 1.13-.47h2.15c.88 0 1.6-.72 1.6-1.6v-2.15c0-.36.21-.87.47-1.13l1.52-1.52c.65-.61.65-1.63.02-2.25zM28.5 29c0-.55.45-1 1-1s1 .45 1 1-.44 1-1 1c-.55 0-1-.45-1-1zm1.53 6.53c-.15.15-.34.22-.53.22s-.38-.07-.53-.22a.754.754 0 010-1.06l6-6c.29-.29.77-.29 1.06 0 .29.29.29.77 0 1.06l-6 6zm5.47.47c-.56 0-1.01-.45-1.01-1s.45-1 1-1 1 .45 1 1-.44 1-.99 1z" fill="#0E0F11"/><defs><linearGradient id="paint0_linear_1_800" x1="32.5" y1="0" x2="32.5" y2="64" gradientUnits="userSpaceOnUse"><stop offset=".355" stop-color="#F3F7FB"/><stop offset="1" stop-color="#F3F7FB" stop-opacity=".1"/></linearGradient></defs></svg>