<svg width="14" height="15" fill="none" xmlns="http://www.w3.org/2000/svg"><g filter="url(#filter0_b_1_818)"><path d="M7 .75c1.313.018 2.488.337 3.527.957a6.935 6.935 0 012.516 2.516c.62 1.039.939 2.215.957 3.527-.018 1.313-.337 2.488-.957 3.527a6.935 6.935 0 01-2.516 2.516c-1.039.62-2.214.939-3.527.957-1.313-.018-2.488-.337-3.527-.957a6.935 6.935 0 01-2.516-2.516C.337 10.238.018 9.063 0 7.75c.018-1.313.337-2.488.957-3.527a6.935 6.935 0 012.516-2.516C4.512 1.087 5.688.768 7 .75zm0 10.938a.818.818 0 00.602-.247.808.808 0 00.273-.629.808.808 0 00-.273-.628A.818.818 0 007 9.938c-.547.054-.839.346-.875.874 0 .256.082.465.246.63a.852.852 0 00.629.245zm1.887-3.883c.62-.401.939-.948.957-1.64-.018-.548-.21-1.004-.574-1.368-.365-.346-.83-.529-1.395-.547H6.48c-.528.018-.975.2-1.34.547-.346.364-.528.82-.546 1.367.036.401.255.62.656.656.401-.036.62-.255.656-.656.018-.365.219-.565.602-.601h1.394c.383.036.593.236.63.601 0 .237-.101.41-.302.52l-1.558.93c-.219.145-.328.337-.328.574v.437c.036.401.255.62.656.656.401-.036.62-.255.656-.656V8.57l1.23-.765z" fill="#fff" fill-opacity=".4"/></g><defs><filter id="filter0_b_1_818" x="-11.473" y="-10.723" width="36.946" height="36.946" filterUnits="userSpaceOnUse" color-interpolation-filters="sRGB"><feFlood flood-opacity="0" result="BackgroundImageFix"/><feGaussianBlur in="BackgroundImageFix" stdDeviation="5.736"/><feComposite in2="SourceAlpha" operator="in" result="effect1_backgroundBlur_1_818"/><feBlend in="SourceGraphic" in2="effect1_backgroundBlur_1_818" result="shape"/></filter></defs></svg>