<svg width="16" height="16" viewBox="0 0 16 16" fill="none" xmlns="http://www.w3.org/2000/svg">
<path fill-rule="evenodd" clip-rule="evenodd" d="M12.5402 4.7965C12.7091 4.96944 12.7091 5.24983 12.5402 5.42277L6.89463 11.2038C6.72574 11.3767 6.45192 11.3767 6.28303 11.2038L3.46023 8.31327C3.29134 8.14033 3.29134 7.85993 3.46023 7.68699C3.62912 7.51405 3.90294 7.51405 4.07184 7.68699L6.58883 10.2643L11.9286 4.7965C12.0975 4.62356 12.3713 4.62356 12.5402 4.7965Z" fill="#28906F"/>
<path fill-rule="evenodd" clip-rule="evenodd" d="M12.731 4.61019C13.0011 4.88673 13.0011 5.33254 12.731 5.60909L7.08541 11.3901C6.8119 11.6701 6.36576 11.6701 6.09224 11.3901L3.26945 8.49958C2.99938 8.22304 2.99938 7.77722 3.26945 7.50068C3.54296 7.2206 3.9891 7.2206 4.26262 7.50068L6.58883 9.88268L11.7378 4.61019C12.0114 4.33011 12.4575 4.33011 12.731 4.61019ZM6.58883 10.2643L4.07184 7.68699C3.90294 7.51405 3.62912 7.51405 3.46023 7.68699C3.29134 7.85993 3.29134 8.14033 3.46023 8.31327L6.28303 11.2038C6.45192 11.3767 6.72574 11.3767 6.89463 11.2038L12.5402 5.42277C12.7091 5.24983 12.7091 4.96944 12.5402 4.7965C12.3713 4.62356 12.0975 4.62356 11.9286 4.7965L6.58883 10.2643Z" fill="#28906F"/>
</svg>
